<?xml version="1.0" encoding="UTF-8"?>
<svg width="512px" height="512px" viewBox="0 0 512 512" version="1.1" xmlns="http://www.w3.org/2000/svg" xmlns:xlink="http://www.w3.org/1999/xlink">
    <!-- Generator: Sketch 55.1 (78136) - https://sketchapp.com -->
    <title>logo</title>
    <desc>Created with Sketch.</desc>
    <defs>
        <linearGradient x1="92.1039871%" y1="19.5384339%" x2="1.35596264%" y2="69.140625%" id="linearGradient-1">
            <stop stop-color="#4E82C1" offset="0%"></stop>
            <stop stop-color="#0A5656" offset="15.6777872%"></stop>
            <stop stop-color="#0F454F" offset="31.4400338%"></stop>
            <stop stop-color="#111212" offset="45.0221706%"></stop>
            <stop stop-color="#070707" offset="63.7668919%"></stop>
            <stop stop-color="#2262AB" offset="100%"></stop>
        </linearGradient>
        <linearGradient x1="-13.6718882%" y1="42.398436%" x2="79.3818956%" y2="55.2705466%" id="linearGradient-2">
            <stop stop-color="#000000" stop-opacity="0" offset="0%"></stop>
            <stop stop-color="#D9DFE2" offset="100%"></stop>
        </linearGradient>
        <radialGradient cx="50%" cy="0%" fx="50%" fy="0%" r="100.576822%" gradientTransform="translate(0.500000,0.000000),scale(0.530127,1.000000),rotate(47.198204),translate(-0.500000,-0.000000)" id="radialGradient-3">
            <stop stop-color="#000000" stop-opacity="0" offset="0%"></stop>
            <stop stop-color="#D9DFE2" offset="100%"></stop>
        </radialGradient>
        <linearGradient x1="69.7992108%" y1="50%" x2="41.9393149%" y2="79.4489904%" id="linearGradient-4">
            <stop stop-color="#D6C0B0" offset="0%"></stop>
            <stop stop-color="#772E12" offset="100%"></stop>
        </linearGradient>
    </defs>
    <g id="Page-1" stroke="none" stroke-width="1" fill="none" fill-rule="evenodd">
        <g id="Desktop-HD-Copy" transform="translate(-689.000000, -398.000000)">
            <g id="earth" transform="translate(689.000000, 398.000000)">
                <circle id="Oval" fill="#FDFEFF" cx="256" cy="256" r="256"></circle>
                <g id="vector" stroke-width="1" transform="translate(8.504983, 8.504983)">
                    <circle id="Oval" fill="url(#linearGradient-1)" cx="248.629014" cy="237.856035" r="255.433001"></circle>
                    <path d="M89.6943522,74.9413068 C92.6860169,81.4556674 97.6788437,74.9952462 99.0276855,84.8615725 C100.376527,94.7278989 95.4956745,97.3297367 94.3610188,109.076412 C93.2263631,120.823087 86.8218117,119.016838 94.3610188,133.173865 C101.900226,147.330892 103.032064,140.698758 117.703212,152.908084 C132.374359,165.117411 128.011611,162.689723 147.118494,177.078627 C166.225376,191.46753 173.258811,190.917075 185.782946,204.177187 C198.307081,217.437299 200.799292,230.198427 206.932447,240.40753 C213.065603,250.616634 216.50042,249.214505 219.501661,260.304553 C222.502902,271.3946 218.229285,271.552216 219.501661,286.852713 C220.774037,302.15321 216.049378,304.36033 224.214839,316.981174 C232.3803,329.602018 241.38587,326.133262 247.897229,330.741971 C254.408588,335.35068 253.301036,323.57528 260.244554,342.482835 C267.188072,361.39039 268.783015,376.781775 268.783015,387.615033 C268.783015,398.448292 261.724904,393.844643 260.244554,406.866002 C258.764204,419.887361 251.419647,427.333364 263.362126,435.297896 C275.304605,443.262428 286.392478,437.488961 296.48062,431.032115 C306.568762,424.57527 305.479796,414.658941 312.722038,403.705426 C319.964279,392.751912 327.083463,406.413756 328.018086,383.333333 C328.952709,360.25291 328.876377,353.380546 315.676633,330.741971 C302.47689,308.103396 295.413515,311.950246 279.625692,300.336656 C263.837869,288.723065 259.902904,296.985366 247.211517,280.378738 C234.52013,263.772109 241.113853,259.519484 228.321152,233.204873 C215.52845,206.890261 214.591689,205.473496 200.299003,183.879606 C186.006318,162.285716 178.45892,155.465771 169.654485,144.569214 C160.85005,133.672657 152.742748,134.754733 151.6567,123.678848 C150.570652,112.602964 154.120525,106.576419 165.128181,98.4084241 C176.135838,90.240429 182.845293,95.3203636 190.861573,94.5877139 C198.877852,93.8550643 204.19656,104.912954 206.932447,94.5877139 C209.668335,84.2624734 206.435333,74.3312828 200.299003,58.9708462 C194.162673,43.6104096 204.574859,40.8783201 182.779623,34.1284607 C160.984387,27.3786013 148.615016,36.3889339 135.58804,38.9302326 C122.561064,41.4715312 120.436865,42.4627906 109.890089,48.3477298 C99.3433125,54.232669 91.8802783,61.6597967 89.6943522,64.538206 C87.508426,67.4166152 86.7026874,68.4269461 89.6943522,74.9413068 Z" id="Path-8" fill="#160F29"></path>
                    <path d="M86.0049834,104.185112 C82.8839878,108.530655 80.5745563,113.681725 79.0766888,119.638324 C76.7458519,122.39125 74.0080335,124.036487 70.8632337,124.574033 C67.7184338,125.111579 64.4060491,124.500514 60.9260797,122.740838 C57.6504957,119.636246 54.8487239,117.79087 52.5207641,117.204708 C49.0288245,116.325466 47.0652903,116.65602 45.022979,118.736564 C43.6614381,120.123593 43.2421874,122.586123 43.765227,126.124152 C44.6229038,129.750271 44.6229038,132.422829 43.765227,134.141828 C42.9075502,135.860826 41.0630504,136.885106 38.2317276,137.214666 C35.7310166,138.198694 33.963667,139.372123 32.9296788,140.734955 C31.8956907,142.097786 31.3830476,143.929464 31.3917497,146.229989 C30.2315105,148.909413 31.0791481,151.252468 33.9346622,153.259154 C36.7901764,155.265839 40.486282,156.115855 45.022979,155.809204 C50.3158915,155.084749 53.2242525,154.722522 53.748062,154.722522 C54.5337763,154.722522 59.1292913,154.722522 59.1292913,154.722522 C59.1292913,154.722522 59.3064154,158.622276 56.2727021,161.372725 C53.2389888,164.123173 51.9033364,162.682647 48.3394241,164.504914 C45.9634827,165.719759 43.690596,167.189971 41.5207641,168.915551 C39.3590667,171.516743 38.6718205,173.840014 39.4590255,175.885365 C40.6398329,178.95339 40.8002421,180.858739 45.912237,180.325668 C49.3202336,179.970287 52.7737219,177.905751 56.2727021,174.13206 L60.9260797,168.915551 L66.1915836,162.991322 C68.6218162,163.559013 70.1790329,163.559013 70.8632337,162.991322 C71.5474345,162.423631 72.2438169,160.711428 72.952381,157.854712 C72.9511239,156.49104 73.7408988,155.809204 75.3217054,155.809204 C76.9025121,155.809204 78.5764693,156.49104 80.343577,157.854712 L82.7707641,164.504914 L81.6013289,172.716639 C81.3380784,175.731262 82.382652,178.267605 84.7350498,180.325668 C87.0874476,182.383731 90.186654,183.472694 94.0326689,183.592556 C95.7462984,184.266846 97.8841721,183.753188 100.44629,182.051582 C103.008408,180.349975 105.249826,177.955168 107.170543,174.867162 C108.983573,172.924652 109.890089,170.274926 109.890089,166.917982 C109.890089,163.561038 108.983573,160.164786 107.170543,156.729227 C103.623662,153.239373 101.850221,151.494446 101.850221,151.494446 C101.850221,151.494446 98.2951282,148.812612 97.9307863,145.106788 C97.6878916,142.636239 98.5263929,140.005532 100.44629,137.214666 C101.564087,135.709445 102.032064,133.512498 101.850221,130.623823 C101.668379,127.735149 100.881649,124.868538 99.4900332,122.023991 L99.4900332,113.794003 C99.8528553,111.878427 100.639585,109.700504 101.850221,107.260235 C103.666177,103.599831 106.156423,100.356624 106.156423,100.356624 C106.156423,100.356624 106.058587,97.5956048 103.735327,95.9939308 C101.412067,94.3922569 99.4282022,94.5093164 97.9307863,94.6858043 C96.4333703,94.8622921 90.6864767,97.6667982 86.0049834,104.185112 Z" id="Path" fill="#6C90B9"></path>
                    <path d="M259.585341,31.009067 C266.643591,33.0812626 265.925886,39.48387 268.602367,40.589727 C270.386688,41.3269649 273.969894,40.855778 279.351986,39.1761663 C283.771112,38.3289792 286.211334,40.5345267 286.672654,45.7928087 C287.133973,51.0510907 285.355976,56.3938198 281.338663,61.820996 C279.955928,65.226001 275.710497,67.1504716 268.602367,67.5944075 C261.494238,68.0383435 252.964072,66.9117689 243.01187,64.2146837 L222.211067,61.820996 C215.071663,62.5989315 209.008932,64.523402 204.022875,67.5944075 C199.036818,70.6654131 196.318414,74.1494074 195.867663,78.0463905 C194.889042,83.35535 194.889042,87.784579 195.867663,91.3340774 C197.335596,96.658325 202.435354,98.7785161 202.435354,101.867663 C202.435354,104.956811 195.867663,108.375415 195.867663,110.333974 C195.867663,112.292532 199.45759,118.032413 204.022875,119.167497 C208.58816,120.302582 212.630409,121.179125 219.553156,116.222989 C226.475903,111.266853 224.596865,107.008652 224.596865,104.438158 C224.596865,101.867663 219.553156,96.3359183 219.553156,94.5877139 C219.553156,92.8395095 218.995118,88.59794 224.596865,91.3340774 C228.331363,93.158169 231.618254,96.6693643 234.457537,101.867663 L232.262216,110.333974 C234.655516,115.504605 237.144119,118.449113 239.728025,119.167497 C243.603883,120.245073 253.444006,116.222989 253.444006,116.222989 C253.444006,116.222989 266.125865,104.49256 268.602367,101.867663 C271.078869,99.2427672 275.678936,92.4714704 278.64175,90.1500554 C281.604564,87.8286403 287.789037,84.255018 291.081326,84.255018 C294.373616,84.255018 297.44779,100.076524 299.780869,101.867663 C302.113948,103.658802 303.947168,108.051873 314.022979,101.867663 C320.740186,97.7448569 324.601597,92.4610633 325.607212,86.0162825 C327.280377,82.6297584 329.768968,80.9364964 333.072986,80.9364964 C338.029012,80.9364964 342.607074,86.0162825 344.421339,86.0162825 C346.235604,86.0162825 351.062743,85.6840504 355.370536,80.9364964 C359.678328,76.1889424 356.00429,71.7828 358.25526,70.7701239 C360.506231,69.7574477 362.030325,68.8591171 368.369913,75.0882821 C374.7095,81.3174472 373.413225,86.0777506 376.062465,88.267165 C378.711705,90.4565794 380.853078,95.074763 388.027685,91.3340774 C395.202293,87.5933917 393.057547,78.0463905 395.665836,78.0463905 C398.274125,78.0463905 407.328427,86.8484839 410.066445,88.267165 C412.804464,89.6858461 425.736434,90.1500554 428.885382,80.9364964 C432.03433,71.7229374 406.48203,44.0640573 383.727817,28.0305579 C360.973604,11.9970584 325.607212,2.80841639 314.022979,-2.97539771e-14 C302.438746,-2.80841639 249.534261,-1.99934247 243.01187,-1.99934247 C236.48948,-1.99934247 177.495397,4.06838317 170.567466,6.17455703 C163.639535,8.2807309 128.238221,24.4761106 109.890089,35.3068245 C97.6580003,42.5273004 88.3653704,50.2409657 82.0121989,58.4478204 C75.6192966,63.1453218 69.8468425,68.6921424 64.6948367,75.0882821 C59.5428308,81.4844219 55.611883,87.9842325 52.9019934,94.5877139 C53.0776273,100.447116 54.1147951,103.730598 56.0134967,104.438158 C58.861549,105.499497 60.8992755,105.955541 68.495778,100.39881 C76.0922805,94.8420776 73.8981776,93.3923545 78.120553,88.267165 C82.3429285,83.1419755 85.6971207,79.1882614 86.9107662,78.0463905 C88.1244117,76.9045197 90.1815822,69.9700997 93.5691964,67.5944075 C96.9568106,65.2187154 106.059143,66.6083714 107.974616,64.2146837 C109.890089,61.820996 115.547675,58.4478204 119.636766,58.4478204 C123.725858,58.4478204 125.437119,62.4262182 125.437119,64.2146837 C125.437119,66.0031492 114.805406,75.4747564 114.805406,78.0463905 C114.805406,80.6180246 123.015054,82.4665525 125.437119,82.4665525 C127.859185,82.4665525 140.185117,84.6278883 149.476606,84.255018 C158.768095,83.8821477 160.357876,86.1622545 167.091916,78.0463905 C173.825956,69.9305265 166.462558,66.9034824 168.090964,61.820996 C169.176568,58.4326717 171.643997,55.1005496 175.493252,51.8246297 C184.046292,53.134811 190.157404,53.134811 193.826585,51.8246297 C199.330357,49.8593577 205.077495,46.4925028 210.908119,45.7928087 C214.795201,45.3263459 219.358116,46.1061079 224.596865,48.1320944 C226.416674,52.8760425 229.703565,54.7619782 234.457537,53.7899017 C241.588496,52.3317869 244.316597,47.9295749 247.211517,43.507925 C250.106437,39.086275 244.990399,36.553259 247.211517,34.3096968 C249.432635,32.0661347 252.52709,28.9368714 259.585341,31.009067 Z" id="Path-2" fill="url(#linearGradient-2)"></path>
                    <path d="M319.596899,120.049151 C317.933774,123.708858 332.496327,127.781996 333.898117,132.234773 C335.299908,136.68755 336.7472,132.0111 326.747508,142.763012 C316.747816,153.514924 316.046807,155.280045 305.51495,162.753045 C294.983093,170.226045 297.392241,169.38741 282.677741,174.033223 C267.963241,178.679035 259.907885,176.941495 252.376523,179.530454 C244.845161,182.119413 239.032266,185.053351 238.623477,189.177187 C238.214689,193.301023 241.689831,192.957358 250.613511,197.315615 C259.53719,201.673871 264.531158,198.661936 269.152824,204.087486 C273.77449,209.513036 274.108549,216.026063 271.681063,222.047619 C269.253578,228.069175 262.900173,226.181989 259.03433,229.187154 C255.168487,232.192319 249.940071,234.6523 252.376523,237.054264 C254.812974,239.456227 262.871367,237.373035 267.014396,237.054264 C271.157425,236.735492 271.243945,234.445974 275.218162,235.296788 C279.192378,236.147603 281.718842,233.662664 282.677741,240.40753 C283.63664,247.152397 281.900272,251.661562 278.282392,256.850498 C274.664512,262.039435 268.962273,259.297524 267.014396,262.872647 C265.06652,266.44777 264.455576,269.485482 269.152824,273.606866 C273.850072,277.72825 276.9829,278.382811 282.677741,276.615725 C288.372582,274.84864 287.608742,268.736634 292.547065,266.34773 C297.485389,263.958825 300.662372,262.969987 303.903654,266.34773 C307.144937,269.725472 306.486205,273.466437 305.51495,279.861573 C304.543695,286.256708 302.480215,285.952628 300.026578,291.875969 C297.572941,297.79931 294.306931,293.772356 295.529347,303.967885 C296.751763,314.163414 299.792352,318.749042 303.903654,324.212625 C308.014957,329.676208 311.36873,330.741971 315.676633,330.741971 C319.984536,330.741971 321.66759,329.695912 323.877076,324.212625 C326.086563,318.729338 325.870342,315.837472 323.877076,310.390919 C321.883811,304.944366 318.652867,308.736349 315.676633,301.805094 C312.7004,294.87384 311.94112,291.168492 313.212625,285.554817 C314.48413,279.941143 313.366496,280.311606 321.38206,276.615725 C329.397623,272.919845 336.481891,277.293895 339.125138,273.606866 C341.768386,269.919837 337.518016,264.390845 333.898117,259.157254 C330.278219,253.923662 324.705641,253.661492 323.877076,251.561462 C323.048512,249.461432 324.553573,248.532746 329.184939,247.211517 C333.816305,245.890288 334.947224,244.75843 339.125138,247.211517 C343.303053,249.664604 344.196418,252.699189 345.601329,256.850498 C347.006239,261.001807 341.628425,263.406718 345.601329,266.34773 C348.249931,268.308404 352.526417,268.308404 358.430786,266.34773 C361.171099,263.808824 363.338319,261.411999 364.932447,259.157254 C367.323639,255.775135 365.581012,253.582409 368.884828,251.561462 C372.188645,249.540515 372.562907,249.439287 377.349945,251.561462 C382.136982,253.683637 378.891971,258.208565 386.018826,259.157254 C393.145681,260.105942 397.469642,257.727559 401.317829,254.751938 C405.166017,251.776317 402.649344,248.866416 405.75969,243.89258 C408.870036,238.918745 410.484889,241.027615 413.483942,235.296788 C416.482995,229.565962 418.102654,228.922586 417.191584,222.047619 C416.280514,215.172652 419.502182,216.367412 410.019934,209.157254 C400.537685,201.947095 392.567907,202.425712 387.839424,199.728682 C383.110941,197.031652 380.315026,194.769319 379.557032,191.781838 C378.799038,188.794358 378.925658,188.898566 384.104097,185.006645 C389.282537,181.114723 393.352227,183.103674 395.85825,179.530454 C398.364273,175.957235 403.944089,174.219965 395.85825,168.246955 C387.772411,162.273945 382.148898,163.289657 373.146179,162.753045 C364.143461,162.216434 358.276954,163.075596 355.039867,165.813953 C351.80278,168.552311 357.093148,172.559099 355.039867,178.069767 C352.986586,183.580436 352.388994,180.876666 347.106312,187.106312 C341.823631,193.335958 342.365589,194.805198 336.673311,199.728682 C330.981033,204.652166 329.581093,207.784919 323.877076,207.198228 C318.173059,206.611537 317.295069,199.33556 313.212625,197.315615 C309.13018,195.295669 308.833689,194.560378 303.903654,197.315615 C298.97362,200.070852 302.491546,205.245657 295.529347,207.198228 C288.567147,209.150799 282.325729,207.168284 279.757475,204.087486 C277.189221,201.006688 277.478989,198.156697 282.677741,191.781838 C287.876493,185.40698 290.10227,185.033665 297.017719,182.922481 C303.933167,180.811296 306.809428,182.504332 311.697674,182.922481 C316.585921,183.340629 312.197325,187.983423 321.38206,185.006645 C330.566794,182.029866 336.935571,177.926283 339.125138,174.033223 C341.314706,170.140162 335.43703,167.276959 333.898117,162.753045 C332.359205,158.229131 328.319607,157.645186 332.019934,153.146179 C335.72026,148.647173 339.396281,154.160502 345.601329,148.52381 C351.806377,142.887117 356.16675,141.10277 355.039867,132.234773 C353.912985,123.366776 350.877169,118.918159 341.426357,115.668882 C331.975544,112.419604 321.260024,116.389444 319.596899,120.049151 Z" id="Path-3" fill="#D2D7DA" opacity="0.225097656"></path>
                    <path d="M371.113787,463.136663 C395.727104,445.611238 398.89819,446.919448 419.899952,427.911372 C440.901713,408.903296 443.64337,402.254096 454.543708,387.626696 C465.444047,372.999295 472.857574,364.816651 472.323713,357.562794 C471.789851,350.308937 457.602933,347.773114 451.43224,345.349547 C445.261547,342.925979 441.965296,344.044621 435.92916,343.26867 C429.893023,342.49272 428.678677,342.470359 423.818798,341.799817 C418.95892,341.129274 421.196646,335.928757 414.194006,340.269761 C407.191366,344.610764 408.143274,347.801797 404.632717,353.693452 C401.12216,359.585108 399.690486,357.462557 399.03568,365.709493 C398.380873,373.956429 400.078869,382.370086 402.355793,382.370086 C404.632717,382.370086 408.880648,390.333927 407.50834,392.244048 C406.136032,394.154168 395.261939,392.244048 395.261939,392.244048 C395.261939,392.244048 385.727886,385.68859 385.727886,382.370086 C385.727886,379.051582 384.518429,370.094677 387.197432,359.208454 C389.876435,348.322232 392.849001,344.155692 396.714286,337.726467 C400.579571,331.297243 400.21058,329.997654 407.50834,325.424817 C414.806101,320.851979 419.147272,319.233991 427.220584,318.610967 C435.293897,317.987942 444.166009,322.595913 444.166009,322.595913 C444.166009,322.595913 452.097552,328.892926 457.918293,334.292342 C463.739035,339.691757 464.842842,345.349547 468.695148,345.349547 C472.547454,345.349547 474.020037,334.292342 474.020037,334.292342 C474.020037,334.292342 463.352021,324.615587 461.800837,322.595913 C460.249654,320.576239 454.142268,312.264361 447.105136,309.13822 C440.068004,306.012079 433.690798,309.054316 427.220584,307.23415 C420.75037,305.413984 419.664684,306.582743 417.444739,300.794314 C415.224795,295.005885 419.899952,293.171235 419.899952,288.145851 C419.899952,283.120467 410.024938,279.758367 411.545162,277.143047 C413.065386,274.527728 419.053624,273.232284 427.220584,275.551789 C435.387544,277.871294 432.996564,280.81555 439.702865,285.140141 C446.409167,289.464731 448.624213,294.331605 454.543708,293.171235 C460.463204,292.010865 461.800837,282.569646 461.800837,280.808382 C461.800837,279.047117 448.629153,268.656337 444.166009,268.656337 C439.702865,268.656337 422.355164,263.542549 419.899952,263.542549 C417.444739,263.542549 409.811398,257.88881 402.355793,261.522875 C394.900188,265.156941 397.665361,266.871595 395.261939,275.551789 C392.858518,284.231983 392.688897,285.126323 393.592816,293.171235 C394.496734,301.216147 400.692439,300.78275 399.03568,309.13822 C397.37892,317.49369 390.220716,323.031663 387.197432,325.424817 C384.174148,327.81797 381.705295,323.444041 376.012355,327.362888 C370.319414,331.281734 375.121288,336.876009 369.326723,337.726467 C363.532159,338.576926 355.039244,332.244186 352.989099,330.741971 C350.938953,329.239756 345.048185,329.859704 338.093819,330.741971 C331.139453,331.624239 325.003738,334.292342 325.003738,334.292342 C325.003738,334.292342 317.31183,333.66927 314.290386,345.349547 C311.268943,357.029824 315.868823,369.606035 315.868823,369.606035 C315.868823,369.606035 320.476679,380.349976 325.003738,385.403032 C329.530797,390.456088 348.380814,396.031804 348.380814,396.031804 C348.380814,396.031804 352.989099,409.401094 352.989099,409.401094 C352.989099,409.401094 340.301218,411.843854 335.871297,418.527028 C331.441376,425.210202 331.347159,438.941376 338.093819,438.941376 C344.840479,438.941376 345.800849,434.413783 351.002457,430.713074 C356.204065,427.012366 359.030731,422.974391 360.536545,422.974391 C362.042359,422.974391 364.867904,418.397032 371.113787,415.0317 C377.35967,411.666368 379.971381,408.505998 385.727886,409.401094 C391.484391,410.296189 393.182982,412.583443 393.592816,418.527028 C394.002649,424.470613 392.642523,427.05241 387.197432,430.713074 C381.752342,434.373738 377.19367,431.205462 369.326723,434.840808 C361.459776,438.476155 362.222488,440.27946 357.397806,444.483596 C352.573124,448.687733 352.150299,450.786147 348.380814,453.092677 C344.611329,455.399207 340.316341,456.295612 338.093819,456.295612 C335.871297,456.295612 328.661859,447.260531 318.840532,448.006091 C309.019204,448.75165 300.828402,459.124516 300.828402,459.124516 C300.828402,459.124516 288.546418,468.843768 280.653551,472.092608 C272.760683,475.341448 273.858953,473.639999 260.914123,475.553917 C247.969293,477.467836 234.752128,478.879222 234.752128,478.879222 C234.752128,478.879222 218.558293,475.578982 215.820062,472.092608 C213.08183,468.606234 222.38777,463.136663 222.38777,463.136663 C222.38777,463.136663 236.775113,466.373498 247.211517,464.70072 C257.647922,463.027941 257.298892,462.703105 265.068833,456.295612 C272.838774,449.888119 270.434355,450.694058 275.265123,441.566272 C280.095892,432.438486 282.703679,430.614228 282.703679,422.974391 C282.703679,415.334554 280.798692,412.318383 275.265123,407.782634 C269.731555,403.246885 265.753243,411.301673 257.63026,415.0317 C249.507278,418.761727 243.82354,422.974391 242.181617,422.974391 C240.539694,422.974391 234.900163,423.627916 222.38777,421.355932 C209.875377,419.083947 198.439213,415.0317 198.439213,415.0317 C198.439213,415.0317 178.409503,402.498823 178.409503,402.498823 C178.409503,402.498823 168.574067,397.32791 161.480075,402.498823 C154.386084,407.669737 155.946917,412.320052 156.420361,418.527028 C156.893804,424.734004 170.281285,430.740241 181.138427,434.840808 C191.99557,438.941376 239.726798,443.202701 242.181617,446.07482 C244.636435,448.946939 234.752128,457.941272 234.752128,456.295612 C234.752128,454.649952 220.029191,456.295612 217.924626,456.295612 C215.820062,456.295612 202.275177,461.979695 198.439213,463.136663 C194.603249,464.29363 190.057205,464.70072 190.057205,464.70072 C190.057205,464.70072 170.267161,457.890368 165.646006,456.295612 C161.024852,454.700856 164.277383,457.012466 156.420361,453.092677 C148.563339,449.172888 148.563339,446.07482 141.969408,444.483596 C135.375476,442.892373 116.887853,440.815625 111.217279,437.180094 C105.546705,433.544564 107.568106,427.911372 112.88642,425.83785 C118.204734,423.764327 133.576966,425.443868 135.657807,418.527028 C137.738649,411.610188 124.732128,404.008448 115.743909,394.413344 C106.75569,384.818241 102.942087,381.380607 96.8934974,375.448003 C90.8449078,369.5154 89.218017,367.214665 84.4202831,363.690372 C79.6225491,360.166079 76.3139705,354.675454 72.5457849,357.562794 C68.7775993,360.450134 69.692767,366.100091 72.5457849,372.789106 C75.3988027,379.478121 77.537933,377.005007 84.4202831,385.403032 C91.3026331,393.801056 96.8934974,402.498823 96.8934974,402.498823 C96.8934974,402.498823 92.7206534,415.0317 91.0787133,415.0317 C89.4367733,415.0317 64.2887703,400.674661 57.7956465,389.361313 C51.3025226,378.047965 53.8637874,372.789106 50.5838524,365.709493 C47.3039175,358.62988 27.7870325,337.932238 24.394648,343.26867 C21.0022636,348.605103 22.7673502,348.299732 26.0093698,361.466691 C29.2513895,374.63365 33.076014,387.626696 35.3166528,387.626696 C37.5572917,387.626696 53.9032898,412.847836 72.5457849,430.713074 C91.18828,448.578313 91.8124179,450.840795 115.743909,464.70072 C139.6754,478.560645 172.023048,488.325339 172.023048,488.325339 C172.023048,488.325339 200.354025,497.253241 232.856035,498.811323 C265.358046,500.369406 269.718492,500.134941 299.222591,494.423034 C328.72669,488.711128 341.664179,480.482416 352.989099,475.553917 C364.314019,470.625419 346.500471,480.662087 371.113787,463.136663 Z" id="Path-4" fill="url(#radialGradient-3)"></path>
                    <path d="M250.613511,387.615033 C256.725144,393.713198 264.500483,392.006985 268.783015,387.615033 C273.065547,383.223082 272.57482,372.780186 272.57482,365.092608 C272.57482,357.40503 269.287713,351.283495 256.894795,351.283495 C244.501877,351.283495 244.501877,381.516868 250.613511,387.615033 Z" id="Path-5" fill="#7EADE1" opacity="0.643159412"></path>
                    <path d="M157.273533,354.427464 C155.547993,360.781762 155.547993,365.963286 157.273533,369.972035 C159.861842,375.98516 162.931777,377.940369 166.950166,376.908084 C170.968555,375.8758 173.309601,370.620147 174.028793,365.667774 C174.747985,360.715401 174.028793,360.715401 170.214839,354.427464 C167.672204,350.235506 163.358435,350.235506 157.273533,354.427464 Z" id="Path-6" stroke="#979797" fill="#A8AFB3"></path>
                    <path d="M446.930233,98.5537099 C441.545388,99.5593019 437.289037,103.126713 437.289037,114.466145 C437.289037,125.805578 441.646387,126.846296 446.930233,139.23366 C452.214078,151.621024 456.780431,153.838485 458.039867,163.114064 C459.299303,172.389643 449.154582,194.523877 452.992248,199.251384 C456.829914,203.978891 461.158651,199.847268 465.470653,199.251384 C469.782656,198.655501 478.61379,188.947977 482.303433,191.565891 C485.993076,194.183806 486.759558,199.121666 488.110742,206.3433 C489.461926,213.564934 484.475593,217.756929 488.110742,222.604058 C491.745891,227.451187 497.120302,229.462868 500.305648,222.604058 C503.490994,215.745248 506.69292,224.641674 500.305648,196.345515 C493.918376,168.049355 491.071218,162.323255 482.303433,142.852713 C473.535648,123.382171 467.918837,118.118054 461.406423,109.962348 C454.894009,101.806641 452.315077,97.5481178 446.930233,98.5537099 Z" id="Path-7" fill="url(#linearGradient-4)"></path>
                </g>
            </g>
        </g>
    </g>
</svg>